<svg xmlns="http://www.w3.org/2000/svg" width="50.03" height="45" viewBox="0 0 50.03 45">
  <metadata><?xpacket begin="﻿" id="W5M0MpCehiHzreSzNTczkc9d"?>
<x:xmpmeta xmlns:x="adobe:ns:meta/" x:xmptk="Adobe XMP Core 5.6-c138 79.159824, 2016/09/14-01:09:01        ">
   <rdf:RDF xmlns:rdf="http://www.w3.org/1999/02/22-rdf-syntax-ns#">
      <rdf:Description rdf:about=""/>
   </rdf:RDF>
</x:xmpmeta>
                                                                                                    
                                                                                                    
                                                                                                    
                                                                                                    
                                                                                                    
                                                                                                    
                                                                                                    
                                                                                                    
                                                                                                    
                                                                                                    
                                                                                                    
                                                                                                    
                                                                                                    
                                                                                                    
                                                                                                    
                                                                                                    
                                                                                                    
                                                                                                    
                                                                                                    
                                                                                                    
                           
<?xpacket end="w"?></metadata>
<defs>
    <style>
      .cls-1 {
        fill: #fff;
        fill-rule: evenodd;
      }
    </style>
  </defs>
  <path id="Forma_1" data-name="Forma 1" class="cls-1" d="M1505.35,244.992h-42.69a3.648,3.648,0,0,0-2.6,1.09,3.728,3.728,0,0,0-1.07,2.625v30.278a3.691,3.691,0,0,0,3.67,3.711h23.11l8.61,6.5a3.635,3.635,0,0,0,2.16.808c1.35,0,2.8-1.036,2.8-3.311v-4h6.01a3.7,3.7,0,0,0,3.67-3.709v-30.28A3.7,3.7,0,0,0,1505.35,244.992Zm0.26,33.993a0.263,0.263,0,0,1-.26.264h-9.42v6.817l-9.03-6.815h-24.24a0.265,0.265,0,0,1-.26-0.266V248.7a0.247,0.247,0,0,1,.08-0.187,0.231,0.231,0,0,1,.18-0.077h42.69a0.266,0.266,0,0,1,.26.267v30.28Zm-40.13-9.107h2.94a1.4,1.4,0,0,1-.15.35,1.58,1.58,0,0,1-.43.367,4.4,4.4,0,0,1-1.1.431l-1.26.343v6.176l1.98-.325a9.387,9.387,0,0,0,5.41-2.713,7.916,7.916,0,0,0,2.15-5.659v-8.42h-9.54v9.45Zm3.41-6h2.71v2.56h-2.71v-2.56Zm6.83,6h2.85a1.876,1.876,0,0,1-.19.476,2.585,2.585,0,0,1-1.41.672l-1.26.346v6.2l2-.356a9.584,9.584,0,0,0,5.35-2.718,7.835,7.835,0,0,0,2.15-5.649v-8.42l-9.49,0v9.452Zm3.41-6h2.67v2.557h-2.67v-2.557Z" transform="translate(-1459 -245)"/>
</svg>
